<svg xmlns="http://www.w3.org/2000/svg" width="71" height="71" viewBox="0 0 71 71" fill="none">
  <path d="M3 35.5C3 17.5507 17.5507 3 35.5 3C53.4493 3.00001 68 17.5508 68 35.5C68 53.4493 53.4493 68 35.5 68C17.5507 68 2.99999 53.4492 3 35.5Z" stroke="#626262" stroke-opacity="0.1" stroke-width="6"/>
  <path d="M35.5 3C53.4493 3.00001 68 17.5508 68 35.5C68 53.4493 53.4493 68 35.5 68C17.5507 68 2.99999 53.4492 3 35.5C3 28.7089 5.08293 22.4043 8.64478 17.1901" stroke="url(#paint0_angular_3_3974)" stroke-width="6"/>
  <g filter="url(#filter0_d_3_3974)">
    <circle cx="5.5" cy="5.5" r="5.5" transform="matrix(1 0 0 -1 5.00001 21)" fill="#00EA77"/>
  </g>
  <defs>
    <filter id="filter0_d_3_3974" x="3.00001" y="10" width="15" height="15" filterUnits="userSpaceOnUse" color-interpolation-filters="sRGB">
      <feFlood flood-opacity="0" result="BackgroundImageFix"/>
      <feColorMatrix in="SourceAlpha" type="matrix" values="0 0 0 0 0 0 0 0 0 0 0 0 0 0 0 0 0 0 127 0" result="hardAlpha"/>
      <feOffset dy="2"/>
      <feGaussianBlur stdDeviation="1"/>
      <feComposite in2="hardAlpha" operator="out"/>
      <feColorMatrix type="matrix" values="0 0 0 0 0 0 0 0 0 0 0 0 0 0 0 0 0 0 0.25 0"/>
      <feBlend mode="normal" in2="BackgroundImageFix" result="effect1_dropShadow_3_3974"/>
      <feBlend mode="normal" in="SourceGraphic" in2="effect1_dropShadow_3_3974" result="shape"/>
    </filter>
    <radialGradient id="paint0_angular_3_3974" cx="0" cy="0" r="1" gradientUnits="userSpaceOnUse" gradientTransform="translate(35.5 35.5) rotate(-90) scale(32.5 32.5)">
      <stop stop-color="#C7FFB1"/>
      <stop offset="1" stop-color="#00EA77"/>
    </radialGradient>
  </defs>
</svg>